# xmcd
#
# Track frame offsets:
#	150
#	17114
#	34431
#	51741
#	70467
#	88536
#	106007
#	125311
#	142270
#	161853
#	180409
#	199305
#	216102
#	231898
#	250131
#	265752
#	282817
#	302557
#
# Disc length: 4380 seconds
#
# Revision: 4
# Processed by: cddbd v1.5.2PL0 Copyright (c) Steve Scherf et al.
# Submitted via: audiograbber 1.83.01
#
DISCID=0e111a12
DTITLE=Various Artist - Zoom Pop Box 2015 Disc 6
DYEAR=2015
DGENRE=Karaoke
TTITLE0=Take That - Get Ready For It
TTITLE1=Take That - Let In The Sun
TTITLE2=Taylor Swift - Bad Blood
TTITLE3=Taylor Swift - Blank Space
TTITLE4=Taylor Swift - Style
TTITLE5=Taylor Swift - Wildest Dreams
TTITLE6=Script,The - Man On A Wire
TTITLE7=Weeknd,The - Can't Feel My Face
TTITLE8=Weeknd,The - Earned It
TTITLE9=Tinie Tempah and Jess Glyne - Not Letting Go 
TTITLE10=Tove Lo - Talking Body
TTITLE11=Walk Off The Earth - Rule The World
TTITLE12=Walk The Moon - Shut Up And Dance
TTITLE13=Wiz Khalifa and Charlie Puth - See You Again 
TTITLE14=Years And Years - Eyes Shut
TTITLE15=Years And Years - King
TTITLE16=Years And Years - Shine
TTITLE17=Zedd and Selena Gomez - I Want You To Know 
EXTD=
EXTT0=
EXTT1=
EXTT2=
EXTT3=
EXTT4=
EXTT5=
EXTT6=
EXTT7=
EXTT8=
EXTT9=
EXTT10=
EXTT11=
EXTT12=
EXTT13=
EXTT14=
EXTT15=
EXTT16=
EXTT17=
PLAYORDER=
